<?xml version="1.0" encoding="UTF-8" standalone="no"?>
<!-- Created with Inkscape (http://www.inkscape.org/) -->

<svg
   xmlns:dc="http://purl.org/dc/elements/1.1/"
   xmlns:cc="http://creativecommons.org/ns#"
   xmlns:rdf="http://www.w3.org/1999/02/22-rdf-syntax-ns#"
   xmlns:svg="http://www.w3.org/2000/svg"
   xmlns="http://www.w3.org/2000/svg"
   xmlns:sodipodi="http://sodipodi.sourceforge.net/DTD/sodipodi-0.dtd"
   xmlns:inkscape="http://www.inkscape.org/namespaces/inkscape"
   width="744.09448819"
   height="1052.3622047"
   id="svg2"
   version="1.1"
   inkscape:version="0.48.5 r10040"
   sodipodi:docname="New document 1">
  <defs
     id="defs4" />
  <sodipodi:namedview
     id="base"
     pagecolor="#ffffff"
     bordercolor="#666666"
     borderopacity="1.0"
     inkscape:pageopacity="0.0"
     inkscape:pageshadow="2"
     inkscape:zoom="0.98994949"
     inkscape:cx="368.11328"
     inkscape:cy="660.71041"
     inkscape:document-units="px"
     inkscape:current-layer="layer1"
     showgrid="false"
     showguides="true"
     inkscape:guide-bbox="true"
     inkscape:snap-global="true"
     inkscape:window-width="958"
     inkscape:window-height="1026"
     inkscape:window-x="960"
     inkscape:window-y="27"
     inkscape:window-maximized="0">
    <sodipodi:guide
       orientation="0.70710678,0.70710678"
       position="271.42857,1734.2857"
       id="guide3781" />
    <inkscape:grid
       type="xygrid"
       id="grid3797"
       empspacing="5"
       visible="true"
       enabled="true"
       snapvisiblegridlinesonly="true" />
    <sodipodi:guide
       orientation="0,1"
       position="322.23866,633.36565"
       id="guide3803" />
    <sodipodi:guide
       orientation="1,0"
       position="461.63971,967.72614"
       id="guide3805" />
    <sodipodi:guide
       orientation="1,0"
       position="199.00005,885.90378"
       id="guide3807" />
  </sodipodi:namedview>
  <metadata
     id="metadata7">
    <rdf:RDF>
      <cc:Work
         rdf:about="">
        <dc:format>image/svg+xml</dc:format>
        <dc:type
           rdf:resource="http://purl.org/dc/dcmitype/StillImage" />
        <dc:title></dc:title>
      </cc:Work>
    </rdf:RDF>
  </metadata>
  <g
     inkscape:label="Layer 1"
     inkscape:groupmode="layer"
     id="layer1">
    <path
       sodipodi:type="arc"
       style="fill:#ffffff;fill-rule:evenodd;stroke:#b7b7b7;stroke-width:30.30000000000000071;stroke-linecap:butt;stroke-linejoin:round;stroke-opacity:1;stroke-miterlimit:4;stroke-dasharray:none"
       id="path3009"
       sodipodi:cx="318.57144"
       sodipodi:cy="418.07648"
       sodipodi:rx="121.42857"
       sodipodi:ry="122.85714"
       d="m 440.00002,418.07648 a 121.42857,122.85714 0 1 1 -242.85715,0 121.42857,122.85714 0 1 1 242.85715,0 z" />
    <path
       style="fill:#ffffff;stroke-width:70;stroke-linejoin:round;stroke-miterlimit:4;stroke-dasharray:none"
       d="m 279.84503,530.62034 c -42.31169,-15.72261 -71.78008,-52.05419 -78.01849,-96.18895 -10.93066,-77.33094 57.53119,-146.21388 133.55637,-134.37786 39.10938,6.08877 73.0353,31.73132 90.03006,68.04828 11.5119,24.60037 14.27858,60.10174 6.50723,83.4991 -10.02934,30.19552 -31.03565,56.63307 -56.44273,71.03616 -28.29705,16.04138 -65.57286,19.15312 -95.63244,7.98327 z"
       id="path3779"
       inkscape:connector-curvature="0" />
    <path
       inkscape:connector-curvature="0"
       id="path3783"
       d="m 279.84503,530.62034 c -42.31169,-15.72261 -71.78008,-52.05419 -78.01849,-96.18895 -10.93066,-77.33094 57.53119,-146.21388 133.55637,-134.37786 39.10938,6.08877 73.0353,31.73132 90.03006,68.04828 11.5119,24.60037 14.27858,60.10174 6.50723,83.4991 -10.02934,30.19552 -31.03565,56.63307 -56.44273,71.03616 -28.29705,16.04138 -65.57286,19.15312 -95.63244,7.98327 z"
       style="fill:#ffffff;stroke-width:70;stroke-linejoin:round;stroke-miterlimit:4;stroke-dasharray:none" />
    <path
       style="fill:#ffffff;stroke-width:70;stroke-linejoin:round;stroke-miterlimit:4;stroke-dasharray:none"
       d="m 279.84503,530.62034 c -42.31169,-15.72261 -71.78008,-52.05419 -78.01849,-96.18895 -10.93066,-77.33094 57.53119,-146.21388 133.55637,-134.37786 39.10938,6.08877 73.0353,31.73132 90.03006,68.04828 11.5119,24.60037 14.27858,60.10174 6.50723,83.4991 -10.02934,30.19552 -31.03565,56.63307 -56.44273,71.03616 -28.29705,16.04138 -65.57286,19.15312 -95.63244,7.98327 z"
       id="path3785"
       inkscape:connector-curvature="0" />
    <rect
       style="fill:#ffffff;stroke:#b7b7b7;stroke-width:30.15109825;stroke-linejoin:round;stroke-miterlimit:4;stroke-opacity:1;stroke-dasharray:none"
       id="rect3801"
       width="107.22507"
       height="1.1590542"
       x="265.19601"
       y="412.86115" />
  </g>
</svg>
